<?xml version="1.0" encoding="utf-8"?>
<!-- Generator: Adobe Illustrator 22.1.0, SVG Export Plug-In . SVG Version: 6.00 Build 0)  -->
<svg version="1.1" id="Vrstva_1" xmlns="http://www.w3.org/2000/svg" xmlns:xlink="http://www.w3.org/1999/xlink" x="0px" y="0px"
	 viewBox="0 0 254.7 141.4" style="enable-background:new 0 0 254.7 141.4;" xml:space="preserve">
<style type="text/css">
	.st0{fill:#808080;}
	.st1{fill:#E60000;}
	.st2{display:none;}
	.st3{display:inline;fill:#7C7B7B;}
	.st4{font-family:'UbuntuTitling-Bold';}
	.st5{font-size:53.7704px;}
	.st6{letter-spacing:1;}
	.st7{display:inline;fill:#E20613;}
</style>
<path class="st0" d="M106.9,51.8c0.8-3.6,2.7-6.8,5.2-9.3c-2.8-2-6.2-3.3-9.9-3.3c-9.2,0-16.7,7.5-16.7,16.7v17.3
	c0,2.9,2.4,5.3,5.3,5.3c2.9,0,5.3-2.4,5.3-5.3V55.9c0-3.4,2.8-6.2,6.2-6.2C104.1,49.7,105.8,50.5,106.9,51.8z"/>
<path class="st1" d="M148.1,39.2c-4.4,0-8.5,1.7-11.5,4.6c-3-2.8-7-4.6-11.5-4.6c-9.2,0-16.7,7.5-16.7,16.7v17.3
	c0,2.9,2.4,5.3,5.3,5.3c2.9,0,5.3-2.4,5.3-5.3V55.9c0-3.4,2.8-6.2,6.2-6.2c3.4,0,6.2,2.8,6.2,6.2v17.3c0,2.9,2.4,5.3,5.3,5.3
	c2.9,0,5.3-2.4,5.3-5.3V55.9c0-3.4,2.8-6.2,6.2-6.2c3.4,0,6.2,2.8,6.2,6.2v17.3c0,2.9,2.4,5.3,5.3,5.3c2.9,0,5.3-2.4,5.3-5.3V55.9
	C164.8,46.7,157.3,39.2,148.1,39.2z"/>
<text transform="matrix(1 0 0 1 8.5223 136.1147)" class="st2"><tspan x="0" y="0" class="st3 st4 st5 st6">re</tspan><tspan x="47.2" y="0" class="st7 st4 st5 st6">medical</tspan></text>
<g>
	<path class="st0" d="M59.6,96.9c0.7,0.1,1.2,0.2,1.7,0.5c0.5,0.2,0.7,0.5,0.7,1c0,0.3-0.1,0.5-0.3,0.7c-0.2,0.2-0.5,0.3-0.7,0.3
		c-0.2,0-0.3,0-0.4-0.1c-0.4-0.1-0.9-0.3-1.3-0.4c-0.4-0.1-0.9-0.2-1.3-0.2c-1.2,0-2.2,0.2-2.8,0.6c-0.7,0.4-1.1,0.9-1.5,1.6
		c-0.3,0.7-0.5,1.4-0.6,2.3c-0.1,0.9-0.1,1.8-0.1,2.7v8c0,0.3-0.1,0.6-0.3,0.7s-0.5,0.3-0.7,0.3c-0.3,0-0.5-0.1-0.7-0.3
		c-0.2-0.2-0.3-0.4-0.3-0.7v-8.3c0-0.5,0-1.1,0-1.7c0-0.6,0.1-1.1,0.2-1.7c0.3-1.9,1-3.3,2.3-4.2c1.2-0.9,2.8-1.4,4.7-1.4
		C58.4,96.7,59,96.8,59.6,96.9z"/>
	<path class="st0" d="M75.2,112.7c0.8-0.3,1.6-0.6,2.5-1c0.2-0.1,0.3-0.1,0.5-0.1c0.3,0,0.6,0.1,0.8,0.3c0.2,0.2,0.3,0.4,0.3,0.7
		c0,0.4-0.2,0.7-0.6,0.9c-0.4,0.2-0.9,0.4-1.4,0.6c-0.5,0.2-1,0.4-1.6,0.5c-0.5,0.1-1.1,0.2-1.6,0.3c-0.5,0.1-1,0.1-1.5,0.1
		c-1.8,0-3.4-0.5-4.7-1.4c-1.3-0.9-2.1-2.3-2.4-4.2c-0.1-0.6-0.1-1.2-0.2-1.8c0-0.6,0-1.2,0-1.8c0-0.6,0-1.2,0-1.8
		c0-0.6,0.1-1.2,0.2-1.8c0.3-1.9,1.1-3.3,2.4-4.2c1.3-0.9,2.9-1.4,4.7-1.4c0.9,0,1.8,0.1,2.6,0.3c0.8,0.2,1.5,0.6,2.1,1
		c0.6,0.5,1.1,1,1.5,1.8c0.4,0.7,0.7,1.5,0.8,2.5c0,0.1,0,0.2,0.1,0.4c0,0.1,0,0.2,0,0.4c0,1.1-0.3,1.9-1,2.6c-0.6,0.6-1.5,1-2.6,1
		h-8.6c0,0.9,0.1,1.8,0.2,2.6c0.1,0.8,0.3,1.5,0.7,2.1c0.3,0.6,0.8,1,1.5,1.4c0.7,0.3,1.6,0.5,2.7,0.5
		C73.5,113.1,74.4,113,75.2,112.7z M70.1,99.1c-0.6,0.3-1.1,0.7-1.5,1.2c-0.4,0.5-0.6,1.1-0.8,1.9c-0.1,0.7-0.2,1.5-0.3,2.4h8.6
		c0.5,0,0.8-0.1,1.1-0.4c0.2-0.3,0.3-0.7,0.3-1.1c0-0.7-0.1-1.4-0.4-1.9c-0.3-0.5-0.6-1-1.1-1.4c-0.5-0.4-1-0.6-1.6-0.8
		c-0.6-0.2-1.2-0.3-1.9-0.3C71.6,98.7,70.7,98.8,70.1,99.1z"/>
	<path class="st1" d="M102.4,97.1c0.7,0.3,1.3,0.6,1.9,1.1c0.5,0.5,0.9,1.1,1.2,1.8c0.3,0.7,0.4,1.5,0.4,2.3V114
		c0,0.3-0.1,0.5-0.3,0.7c-0.2,0.2-0.5,0.3-0.8,0.3c-0.3,0-0.5-0.1-0.7-0.3c-0.2-0.2-0.3-0.4-0.3-0.7v-11.6c0-1.1-0.3-2-1-2.7
		c-0.6-0.7-1.5-1-2.7-1c-1.1,0-2,0.3-2.7,1c-0.6,0.7-1,1.6-1,2.7V114c0,0.3-0.1,0.5-0.3,0.7c-0.2,0.2-0.5,0.3-0.8,0.3
		c-0.3,0-0.5-0.1-0.7-0.3c-0.2-0.2-0.3-0.4-0.3-0.7v-11.6c0-1.1-0.3-2-1-2.7c-0.6-0.7-1.5-1-2.7-1c-1.1,0-2,0.3-2.7,1
		c-0.6,0.7-1,1.6-1,2.7V114c0,0.3-0.1,0.5-0.3,0.7c-0.2,0.2-0.5,0.3-0.7,0.3c-0.3,0-0.5-0.1-0.7-0.3c-0.2-0.2-0.3-0.4-0.3-0.7v-11.6
		c0-0.9,0.1-1.6,0.4-2.3c0.3-0.7,0.7-1.3,1.2-1.8c0.5-0.5,1.1-0.9,1.8-1.1c0.7-0.3,1.5-0.4,2.3-0.4c1,0,1.9,0.2,2.8,0.6
		c0.8,0.4,1.5,1.1,2,1.9c0.5-0.9,1.1-1.5,2-1.9c0.8-0.4,1.7-0.6,2.7-0.6C101,96.7,101.7,96.9,102.4,97.1z"/>
	<path class="st1" d="M121.1,112.7c0.8-0.3,1.6-0.6,2.5-1c0.2-0.1,0.3-0.1,0.5-0.1c0.3,0,0.6,0.1,0.8,0.3c0.2,0.2,0.3,0.4,0.3,0.7
		c0,0.4-0.2,0.7-0.6,0.9c-0.4,0.2-0.9,0.4-1.4,0.6c-0.5,0.2-1,0.4-1.6,0.5c-0.5,0.1-1.1,0.2-1.6,0.3c-0.5,0.1-1,0.1-1.5,0.1
		c-1.8,0-3.4-0.5-4.7-1.4c-1.3-0.9-2.1-2.3-2.4-4.2c-0.1-0.6-0.1-1.2-0.2-1.8c0-0.6,0-1.2,0-1.8c0-0.6,0-1.2,0-1.8
		c0-0.6,0.1-1.2,0.2-1.8c0.3-1.9,1.1-3.3,2.4-4.2c1.3-0.9,2.9-1.4,4.7-1.4c0.9,0,1.8,0.1,2.6,0.3c0.8,0.2,1.5,0.6,2.1,1
		c0.6,0.5,1.1,1,1.5,1.8c0.4,0.7,0.7,1.5,0.8,2.5c0,0.1,0,0.2,0.1,0.4c0,0.1,0,0.2,0,0.4c0,1.1-0.3,1.9-1,2.6c-0.6,0.6-1.5,1-2.6,1
		h-8.6c0,0.9,0.1,1.8,0.2,2.6c0.1,0.8,0.3,1.5,0.7,2.1c0.3,0.6,0.8,1,1.5,1.4c0.7,0.3,1.6,0.5,2.7,0.5
		C119.4,113.1,120.3,113,121.1,112.7z M116,99.1c-0.6,0.3-1.2,0.7-1.5,1.2c-0.4,0.5-0.6,1.1-0.8,1.9c-0.1,0.7-0.2,1.5-0.3,2.4h8.6
		c0.5,0,0.8-0.1,1.1-0.4c0.2-0.3,0.3-0.7,0.3-1.1c0-0.7-0.1-1.4-0.4-1.9c-0.3-0.5-0.6-1-1.1-1.4c-0.5-0.4-1-0.6-1.6-0.8
		c-0.6-0.2-1.2-0.3-1.9-0.3C117.5,98.7,116.6,98.8,116,99.1z"/>
	<path class="st1" d="M130.6,104.1c0-0.6,0.1-1.2,0.2-1.8c0.3-1.9,1.1-3.3,2.4-4.2c1.3-0.9,2.9-1.4,4.7-1.4c0.9,0,1.8,0.1,2.6,0.3
		c0.8,0.2,1.6,0.5,2.4,0.9v-7.2c0-0.3,0.1-0.5,0.3-0.7c0.2-0.2,0.5-0.3,0.7-0.3c0.3,0,0.5,0.1,0.7,0.3c0.2,0.2,0.3,0.4,0.3,0.7v15.5
		c0,0.5,0,1.1,0,1.6c0,0.5-0.1,1.1-0.2,1.6c-0.1,1-0.4,1.8-0.8,2.5c-0.4,0.7-0.9,1.3-1.5,1.8c-0.6,0.5-1.3,0.8-2.1,1
		c-0.8,0.2-1.6,0.3-2.6,0.3c-1.8,0-3.4-0.5-4.7-1.4c-1.3-0.9-2.1-2.3-2.4-4.2c-0.1-0.6-0.1-1.2-0.2-1.8c0-0.6,0-1.2,0-1.8
		C130.6,105.3,130.6,104.7,130.6,104.1z M132.8,108.6c0.1,0.9,0.3,1.6,0.6,2.3c0.3,0.7,0.8,1.2,1.5,1.6c0.7,0.4,1.6,0.6,2.9,0.6
		c1.2,0,2.2-0.2,2.8-0.6c0.7-0.4,1.2-0.9,1.5-1.6c0.3-0.7,0.5-1.4,0.6-2.3c0.1-0.9,0.1-1.8,0.1-2.7v-6c-0.8-0.4-1.6-0.7-2.4-0.9
		c-0.9-0.2-1.7-0.4-2.6-0.4c-1.2,0-2.2,0.2-2.9,0.6c-0.7,0.4-1.2,0.9-1.5,1.6c-0.3,0.7-0.5,1.4-0.6,2.3c-0.1,0.9-0.1,1.8-0.1,2.7
		C132.7,106.9,132.8,107.8,132.8,108.6z"/>
	<path class="st1" d="M152.8,93.4c-0.3,0.3-0.6,0.4-1,0.4c-0.4,0-0.7-0.1-1-0.4c-0.3-0.3-0.4-0.6-0.4-1c0-0.4,0.1-0.7,0.4-1
		c0.3-0.3,0.6-0.4,1-0.4c0.4,0,0.7,0.1,1,0.4c0.3,0.3,0.4,0.6,0.4,1C153.2,92.8,153.1,93.1,152.8,93.4z M151.1,114.7
		c-0.2-0.2-0.3-0.4-0.3-0.7V97.9c0-0.3,0.1-0.6,0.3-0.7c0.2-0.2,0.5-0.3,0.7-0.3c0.3,0,0.5,0.1,0.7,0.3c0.2,0.2,0.3,0.4,0.3,0.7V114
		c0,0.3-0.1,0.6-0.3,0.7c-0.2,0.2-0.5,0.3-0.7,0.3C151.5,115,151.3,114.9,151.1,114.7z"/>
	<path class="st1" d="M168,112.7c0.8-0.3,1.6-0.6,2.4-1c0.2-0.1,0.3-0.1,0.5-0.1c0.3,0,0.5,0.1,0.8,0.3c0.2,0.2,0.3,0.4,0.3,0.7
		c0,0.4-0.2,0.7-0.6,0.9c-0.4,0.2-0.9,0.4-1.4,0.6c-0.5,0.2-1,0.4-1.5,0.5c-0.5,0.1-1,0.2-1.6,0.3c-0.5,0.1-1,0.1-1.5,0.1
		c-1.9,0-3.4-0.5-4.7-1.4c-1.3-0.9-2.1-2.3-2.3-4.2c-0.1-0.6-0.1-1.2-0.2-1.8c0-0.6,0-1.2,0-1.8c0-0.6,0-1.2,0-1.8
		c0-0.6,0.1-1.2,0.2-1.8c0.3-1.9,1.1-3.3,2.3-4.2c1.3-0.9,2.9-1.4,4.7-1.4c0.5,0,0.9,0,1.5,0.1c0.5,0.1,1,0.2,1.6,0.3
		c0.5,0.1,1,0.3,1.5,0.5c0.5,0.2,0.9,0.4,1.3,0.6c0.4,0.2,0.6,0.5,0.6,0.9c0,0.3-0.1,0.6-0.3,0.7c-0.2,0.2-0.5,0.3-0.8,0.3
		c-0.2,0-0.4,0-0.5-0.1c-0.8-0.4-1.6-0.7-2.4-1c-0.8-0.3-1.6-0.4-2.5-0.4c-1.2,0-2.2,0.2-2.9,0.6c-0.7,0.4-1.2,0.9-1.5,1.6
		c-0.3,0.7-0.5,1.4-0.6,2.3c-0.1,0.9-0.1,1.8-0.1,2.7c0,1,0,1.9,0.1,2.7c0.1,0.9,0.3,1.6,0.6,2.3c0.3,0.7,0.8,1.2,1.5,1.6
		c0.7,0.4,1.6,0.6,2.9,0.6C166.4,113.1,167.2,113,168,112.7z"/>
	<path class="st1" d="M186.5,97.1c0.9,0.3,1.7,0.7,2.4,1.4c0.4,0.4,0.7,0.9,1,1.3c0.2,0.5,0.4,1,0.5,1.5c0.1,0.5,0.2,1.1,0.2,1.6
		c0,0.6,0.1,1.1,0.1,1.7v2.4c0,0.5,0,1.1-0.1,1.7c0,0.6-0.1,1.1-0.2,1.6c-0.1,0.5-0.3,1-0.5,1.5c-0.2,0.5-0.6,0.9-1,1.3
		c-0.7,0.7-1.5,1.2-2.4,1.4c-0.9,0.3-1.8,0.4-2.8,0.4c-1,0-1.9-0.1-2.8-0.3c-0.9-0.2-1.6-0.6-2.3-1.1c-0.7-0.5-1.2-1.1-1.6-1.9
		c-0.4-0.8-0.6-1.7-0.6-2.7c0-1.1,0.2-2,0.6-2.8c0.4-0.8,0.9-1.4,1.6-1.9c0.7-0.5,1.4-0.8,2.3-1c0.9-0.2,1.8-0.3,2.8-0.3
		c0.8,0,1.6,0.1,2.4,0.2c0.8,0.1,1.6,0.2,2.4,0.4c-0.1-1.6-0.5-2.9-1.2-3.7c-0.7-0.8-1.9-1.2-3.7-1.2c-0.8,0-1.6,0.1-2.4,0.2
		c-0.8,0.1-1.5,0.3-2.3,0.5c-0.2,0-0.3,0.1-0.3,0.1c-0.3,0-0.5-0.1-0.7-0.3c-0.2-0.2-0.3-0.4-0.3-0.7c0-0.2,0.1-0.5,0.2-0.6
		c0.1-0.2,0.3-0.3,0.6-0.4c0.8-0.3,1.7-0.5,2.7-0.6c0.9-0.1,1.8-0.1,2.7-0.1C184.6,96.7,185.6,96.9,186.5,97.1z M186.2,112.7
		c0.6-0.3,1.1-0.7,1.5-1.2c0.4-0.5,0.6-1.2,0.7-1.9c0.1-0.7,0.2-1.6,0.2-2.5v-1.6c-1.7-0.3-3.3-0.5-4.9-0.5c-0.7,0-1.4,0.1-2,0.2
		c-0.6,0.1-1.1,0.3-1.6,0.6c-0.5,0.3-0.8,0.7-1.1,1.2c-0.3,0.5-0.4,1.2-0.4,2c0,0.8,0.1,1.4,0.4,1.9c0.3,0.5,0.6,0.9,1.1,1.2
		c0.5,0.3,1,0.5,1.6,0.7c0.6,0.1,1.3,0.2,2,0.2C184.7,113.1,185.6,113,186.2,112.7z"/>
	<path class="st1" d="M198,90.1c0.2,0.2,0.3,0.4,0.3,0.7v17.6c0,0.6,0,1.1,0.1,1.5c0.1,0.4,0.2,0.8,0.3,1.2c0.1,0.4,0.4,0.7,0.6,1.1
		c0.3,0.3,0.6,0.7,1,1.1c0.3,0.2,0.4,0.5,0.4,0.9c0,0.3-0.1,0.5-0.3,0.6c-0.2,0.1-0.4,0.2-0.7,0.2c-0.3,0-0.6-0.1-0.9-0.3
		c-0.5-0.4-0.9-0.8-1.3-1.3c-0.4-0.5-0.6-1-0.9-1.6c-0.2-0.6-0.4-1.1-0.5-1.7c-0.1-0.6-0.1-1.2-0.1-1.8V90.8c0-0.3,0.1-0.5,0.3-0.7
		c0.2-0.2,0.5-0.3,0.7-0.3C197.5,89.8,197.8,89.9,198,90.1z"/>
</g>
<g>
	<g>
		<path class="st1" d="M172.4,31c0.7,0.3,1.2,0.7,1.7,1.2c0.5,0.5,0.9,1.1,1.2,1.7c0.3,0.7,0.4,1.4,0.4,2.1c0,0.8-0.1,1.5-0.4,2.1
			c-0.3,0.7-0.7,1.2-1.2,1.7c-0.5,0.5-1.1,0.9-1.7,1.2c-0.7,0.3-1.4,0.4-2.1,0.4c-0.8,0-1.5-0.1-2.1-0.4c-0.7-0.3-1.2-0.7-1.7-1.2
			c-0.5-0.5-0.9-1.1-1.2-1.7c-0.3-0.7-0.4-1.4-0.4-2.1c0-0.8,0.1-1.5,0.4-2.1c0.3-0.7,0.7-1.3,1.2-1.7c0.5-0.5,1.1-0.9,1.7-1.2
			c0.7-0.3,1.4-0.4,2.1-0.4C171.1,30.6,171.8,30.8,172.4,31z M168.5,31.7c-0.6,0.3-1.1,0.6-1.5,1c-0.4,0.4-0.8,0.9-1,1.5
			c-0.2,0.6-0.4,1.2-0.4,1.9s0.1,1.3,0.4,1.9c0.2,0.6,0.6,1.1,1,1.5c0.4,0.4,0.9,0.8,1.5,1c0.6,0.3,1.2,0.4,1.9,0.4
			c0.7,0,1.3-0.1,1.8-0.4c0.6-0.3,1.1-0.6,1.5-1c0.4-0.4,0.8-0.9,1-1.5c0.2-0.6,0.4-1.2,0.4-1.9s-0.1-1.3-0.4-1.9
			c-0.2-0.6-0.6-1.1-1-1.5c-0.4-0.4-0.9-0.8-1.5-1c-0.6-0.3-1.2-0.4-1.8-0.4C169.7,31.3,169,31.4,168.5,31.7z M172.8,39.2
			c0,0.1,0,0.2-0.1,0.3c-0.1,0.1-0.2,0.1-0.3,0.1c-0.1,0-0.2-0.1-0.3-0.2l-2.1-2.7c-0.1-0.1-0.2-0.2-0.2-0.3
			c-0.1-0.1-0.2-0.1-0.3-0.1h-0.5v2.9c0,0.1,0,0.2-0.1,0.3c-0.1,0.1-0.2,0.1-0.3,0.1s-0.2,0-0.3-0.1c-0.1-0.1-0.1-0.2-0.1-0.3v-5.4
			c0-0.2,0-0.3,0.1-0.5c0.1-0.1,0.2-0.3,0.3-0.4c0.1-0.1,0.3-0.2,0.4-0.2c0.2-0.1,0.3-0.1,0.5-0.1h1.3c0.3,0,0.6,0,0.8,0.1
			c0.2,0.1,0.5,0.2,0.7,0.3c0.2,0.2,0.3,0.3,0.4,0.6c0.1,0.2,0.2,0.5,0.2,0.8c0,0.6-0.2,1.1-0.6,1.4c-0.4,0.3-0.8,0.5-1.4,0.5l2,2.6
			C172.8,39,172.8,39.1,172.8,39.2z M170.6,35.6c0.4,0,0.7-0.1,0.9-0.3c0.2-0.2,0.3-0.5,0.3-0.8c0-0.4-0.1-0.7-0.3-0.8
			c-0.2-0.2-0.5-0.3-0.9-0.3h-1.3c-0.1,0-0.2,0-0.3,0.1c-0.1,0.1-0.1,0.2-0.1,0.3v1.8H170.6z"/>
	</g>
</g>
</svg>
